<svg width="300" height="50" xmlns="http://www.w3.org/2000/svg">
      <rect x="0" y="0" width="2" height="50" fill="black"/><rect x="4" y="0" width="4" height="50" fill="black"/><rect x="11" y="0" width="3" height="50" fill="black"/><rect x="17" y="0" width="2" height="50" fill="black"/><rect x="21" y="0" width="6" height="50" fill="black"/><rect x="32" y="0" width="2" height="50" fill="black"/><rect x="36" y="0" width="2" height="50" fill="black"/><rect x="41" y="0" width="3" height="50" fill="black"/><rect x="46" y="0" width="6" height="50" fill="black"/><rect x="55" y="0" width="6" height="50" fill="black"/><rect x="66" y="0" width="3" height="50" fill="black"/><rect x="74" y="0" width="6" height="50" fill="black"/><rect x="84" y="0" width="2" height="50" fill="black"/><rect x="89" y="0" width="5" height="50" fill="black"/><rect x="98" y="0" width="4" height="50" fill="black"/><rect x="105" y="0" width="3" height="50" fill="black"/><rect x="112" y="0" width="2" height="50" fill="black"/><rect x="116" y="0" width="5" height="50" fill="black"/><rect x="123" y="0" width="4" height="50" fill="black"/><rect x="131" y="0" width="6" height="50" fill="black"/><rect x="141" y="0" width="2" height="50" fill="black"/><rect x="148" y="0" width="6" height="50" fill="black"/><rect x="156" y="0" width="5" height="50" fill="black"/><rect x="163" y="0" width="6" height="50" fill="black"/><rect x="173" y="0" width="6" height="50" fill="black"/><rect x="183" y="0" width="6" height="50" fill="black"/><rect x="192" y="0" width="2" height="50" fill="black"/><rect x="196" y="0" width="3" height="50" fill="black"/><rect x="203" y="0" width="2" height="50" fill="black"/><rect x="208" y="0" width="2" height="50" fill="black"/><rect x="215" y="0" width="4" height="50" fill="black"/><rect x="224" y="0" width="4" height="50" fill="black"/><rect x="231" y="0" width="4" height="50" fill="black"/><rect x="239" y="0" width="3" height="50" fill="black"/><rect x="246" y="0" width="2" height="50" fill="black"/><rect x="251" y="0" width="6" height="50" fill="black"/><rect x="260" y="0" width="3" height="50" fill="black"/><rect x="268" y="0" width="5" height="50" fill="black"/><rect x="277" y="0" width="6" height="50" fill="black"/><rect x="286" y="0" width="4" height="50" fill="black"/><rect x="292" y="0" width="3" height="50" fill="black"/><rect x="297" y="0" width="4" height="50" fill="black"/>
    </svg>